<svg width="21" height="20" viewBox="0 0 21 20" fill="none" xmlns="http://www.w3.org/2000/svg">
<path d="M18 17.5V5.625L12.375 0H5.5C4.83696 0 4.20107 0.263392 3.73223 0.732233C3.26339 1.20107 3 1.83696 3 2.5V17.5C3 18.163 3.26339 18.7989 3.73223 19.2678C4.20107 19.7366 4.83696 20 5.5 20H15.5C16.163 20 16.7989 19.7366 17.2678 19.2678C17.7366 18.7989 18 18.163 18 17.5ZM12.375 3.75C12.375 4.24728 12.5725 4.72419 12.9242 5.07583C13.2758 5.42746 13.7527 5.625 14.25 5.625H16.75V11.25H4.25V2.5C4.25 2.16848 4.3817 1.85054 4.61612 1.61612C4.85054 1.3817 5.16848 1.25 5.5 1.25H12.375V3.75ZM4.25 15V12.5H6.75V15H4.25ZM4.25 16.25H6.75V18.75H5.5C5.16848 18.75 4.85054 18.6183 4.61612 18.3839C4.3817 18.1495 4.25 17.8315 4.25 17.5V16.25ZM8 18.75V16.25H11.75V18.75H8ZM13 18.75V16.25H16.75V17.5C16.75 17.8315 16.6183 18.1495 16.3839 18.3839C16.1495 18.6183 15.8315 18.75 15.5 18.75H13ZM16.75 15H13V12.5H16.75V15ZM8 15V12.5H11.75V15H8Z" fill="black" fill-opacity="0.8"/>
</svg>
