<svg width="25" height="24" viewBox="0 0 25 24" fill="none" xmlns="http://www.w3.org/2000/svg">
<path d="M21.8733 0H3.87326C3.07761 0 2.31455 0.316071 1.75194 0.87868C1.18933 1.44129 0.87326 2.20435 0.87326 3L0.87326 21C0.87326 21.7956 1.18933 22.5587 1.75194 23.1213C2.31455 23.6839 3.07761 24 3.87326 24H21.8733C22.6689 24 23.432 23.6839 23.9946 23.1213C24.5572 22.5587 24.8733 21.7956 24.8733 21V3C24.8733 2.20435 24.5572 1.44129 23.9946 0.87868C23.432 0.316071 22.6689 0 21.8733 0V0ZM2.37326 5.7855C2.37326 5.076 3.04526 4.5 3.87326 4.5H21.8733C22.7013 4.5 23.3733 5.076 23.3733 5.7855V21.2145C23.3733 21.924 22.7013 22.5 21.8733 22.5H3.87326C3.04526 22.5 2.37326 21.924 2.37326 21.2145V5.7855Z" fill="#72777A"/>
<path d="M10.6233 10.5C11.0211 10.5 11.4026 10.342 11.6839 10.0607C11.9652 9.77936 12.1233 9.39782 12.1233 9C12.1233 8.60218 11.9652 8.22064 11.6839 7.93934C11.4026 7.65804 11.0211 7.5 10.6233 7.5C10.2254 7.5 9.8439 7.65804 9.5626 7.93934C9.2813 8.22064 9.12326 8.60218 9.12326 9C9.12326 9.39782 9.2813 9.77936 9.5626 10.0607C9.8439 10.342 10.2254 10.5 10.6233 10.5ZM15.1233 10.5C15.5211 10.5 15.9026 10.342 16.1839 10.0607C16.4652 9.77936 16.6233 9.39782 16.6233 9C16.6233 8.60218 16.4652 8.22064 16.1839 7.93934C15.9026 7.65804 15.5211 7.5 15.1233 7.5C14.7254 7.5 14.3439 7.65804 14.0626 7.93934C13.7813 8.22064 13.6233 8.60218 13.6233 9C13.6233 9.39782 13.7813 9.77936 14.0626 10.0607C14.3439 10.342 14.7254 10.5 15.1233 10.5ZM19.6233 10.5C20.0211 10.5 20.4026 10.342 20.6839 10.0607C20.9652 9.77936 21.1233 9.39782 21.1233 9C21.1233 8.60218 20.9652 8.22064 20.6839 7.93934C20.4026 7.65804 20.0211 7.5 19.6233 7.5C19.2254 7.5 18.8439 7.65804 18.5626 7.93934C18.2813 8.22064 18.1233 8.60218 18.1233 9C18.1233 9.39782 18.2813 9.77936 18.5626 10.0607C18.8439 10.342 19.2254 10.5 19.6233 10.5ZM6.12326 15C6.52109 15 6.90262 14.842 7.18392 14.5607C7.46522 14.2794 7.62326 13.8978 7.62326 13.5C7.62326 13.1022 7.46522 12.7206 7.18392 12.4393C6.90262 12.158 6.52109 12 6.12326 12C5.72544 12 5.3439 12.158 5.0626 12.4393C4.7813 12.7206 4.62326 13.1022 4.62326 13.5C4.62326 13.8978 4.7813 14.2794 5.0626 14.5607C5.3439 14.842 5.72544 15 6.12326 15ZM10.6233 15C11.0211 15 11.4026 14.842 11.6839 14.5607C11.9652 14.2794 12.1233 13.8978 12.1233 13.5C12.1233 13.1022 11.9652 12.7206 11.6839 12.4393C11.4026 12.158 11.0211 12 10.6233 12C10.2254 12 9.8439 12.158 9.5626 12.4393C9.2813 12.7206 9.12326 13.1022 9.12326 13.5C9.12326 13.8978 9.2813 14.2794 9.5626 14.5607C9.8439 14.842 10.2254 15 10.6233 15ZM15.1233 15C15.5211 15 15.9026 14.842 16.1839 14.5607C16.4652 14.2794 16.6233 13.8978 16.6233 13.5C16.6233 13.1022 16.4652 12.7206 16.1839 12.4393C15.9026 12.158 15.5211 12 15.1233 12C14.7254 12 14.3439 12.158 14.0626 12.4393C13.7813 12.7206 13.6233 13.1022 13.6233 13.5C13.6233 13.8978 13.7813 14.2794 14.0626 14.5607C14.3439 14.842 14.7254 15 15.1233 15ZM19.6233 15C20.0211 15 20.4026 14.842 20.6839 14.5607C20.9652 14.2794 21.1233 13.8978 21.1233 13.5C21.1233 13.1022 20.9652 12.7206 20.6839 12.4393C20.4026 12.158 20.0211 12 19.6233 12C19.2254 12 18.8439 12.158 18.5626 12.4393C18.2813 12.7206 18.1233 13.1022 18.1233 13.5C18.1233 13.8978 18.2813 14.2794 18.5626 14.5607C18.8439 14.842 19.2254 15 19.6233 15ZM6.12326 19.5C6.52109 19.5 6.90262 19.342 7.18392 19.0607C7.46522 18.7794 7.62326 18.3978 7.62326 18C7.62326 17.6022 7.46522 17.2206 7.18392 16.9393C6.90262 16.658 6.52109 16.5 6.12326 16.5C5.72544 16.5 5.3439 16.658 5.0626 16.9393C4.7813 17.2206 4.62326 17.6022 4.62326 18C4.62326 18.3978 4.7813 18.7794 5.0626 19.0607C5.3439 19.342 5.72544 19.5 6.12326 19.5ZM10.6233 19.5C11.0211 19.5 11.4026 19.342 11.6839 19.0607C11.9652 18.7794 12.1233 18.3978 12.1233 18C12.1233 17.6022 11.9652 17.2206 11.6839 16.9393C11.4026 16.658 11.0211 16.5 10.6233 16.5C10.2254 16.5 9.8439 16.658 9.5626 16.9393C9.2813 17.2206 9.12326 17.6022 9.12326 18C9.12326 18.3978 9.2813 18.7794 9.5626 19.0607C9.8439 19.342 10.2254 19.5 10.6233 19.5ZM15.1233 19.5C15.5211 19.5 15.9026 19.342 16.1839 19.0607C16.4652 18.7794 16.6233 18.3978 16.6233 18C16.6233 17.6022 16.4652 17.2206 16.1839 16.9393C15.9026 16.658 15.5211 16.5 15.1233 16.5C14.7254 16.5 14.3439 16.658 14.0626 16.9393C13.7813 17.2206 13.6233 17.6022 13.6233 18C13.6233 18.3978 13.7813 18.7794 14.0626 19.0607C14.3439 19.342 14.7254 19.5 15.1233 19.5Z" fill="#72777A"/>
</svg>
