<svg width="20" height="20" viewBox="0 0 20 20" fill="none" xmlns="http://www.w3.org/2000/svg">
<path d="M3.33301 8.75C2.64134 8.75 2.08301 9.30833 2.08301 10C2.08301 10.6917 2.64134 11.25 3.33301 11.25C4.02467 11.25 4.58301 10.6917 4.58301 10C4.58301 9.30833 4.02467 8.75 3.33301 8.75ZM3.33301 3.75C2.64134 3.75 2.08301 4.30833 2.08301 5C2.08301 5.69167 2.64134 6.25 3.33301 6.25C4.02467 6.25 4.58301 5.69167 4.58301 5C4.58301 4.30833 4.02467 3.75 3.33301 3.75ZM3.33301 13.75C2.64134 13.75 2.08301 14.3167 2.08301 15C2.08301 15.6833 2.64967 16.25 3.33301 16.25C4.01634 16.25 4.58301 15.6833 4.58301 15C4.58301 14.3167 4.02467 13.75 3.33301 13.75ZM5.83301 15.8333H17.4997V14.1667H5.83301V15.8333ZM5.83301 10.8333H17.4997V9.16667H5.83301V10.8333ZM5.83301 4.16667V5.83333H17.4997V4.16667H5.83301Z" fill="#678AB7"/>
</svg>
