<svg width="79" height="73" viewBox="0 0 79 73" fill="none" xmlns="http://www.w3.org/2000/svg">
<path d="M21.7543 63.7274L1.39538 24.5587C1.21561 24.2055 0.892023 23.336 1.03584 22.6838C1.15569 22.2355 1.71896 21.3062 3.01331 21.1758H14.0692C15.2526 21.3116 17.9252 22.1051 19.1477 24.1919L30.1136 47.954L21.7543 63.7274Z" fill="#023C87" stroke="#023C87"/>
<path d="M75.9627 1.16303L64.9068 1C64.0679 1.14945 62.2103 1.61137 61.4912 2.26351C61.0867 2.49447 60.1789 3.16019 59.7834 3.97535L26.0765 70.8597L27.6046 71.8787C27.6795 71.9194 27.8922 72.0009 28.1439 72.0009H39.5143C40.6679 71.539 43.1367 70.2809 43.7839 68.9441L77.0862 5.48341L77.5357 4.62749L77.7604 4.09763C77.8203 3.90742 77.9491 3.4618 77.9851 3.20095C78.075 2.67109 77.7963 1.52171 75.9627 1.16303Z" fill="#00B9F1" stroke="#00B9F1"/>
</svg>
