<svg width="87" height="87" viewBox="0 0 87 87" fill="none" xmlns="http://www.w3.org/2000/svg">
<path d="M87 43.5C87 67.5244 67.5244 87 43.5 87C19.4756 87 0 67.5244 0 43.5C0 19.4756 19.4756 0 43.5 0C67.5244 0 87 19.4756 87 43.5ZM6.494 43.5C6.494 63.9378 23.0622 80.506 43.5 80.506C63.9378 80.506 80.506 63.9378 80.506 43.5C80.506 23.0622 63.9378 6.494 43.5 6.494C23.0622 6.494 6.494 23.0622 6.494 43.5Z" fill="#023C87"/>
<path d="M55.7788 43.1778L53.3333 41.0183V35.3333C53.3333 35.1564 53.2631 34.9869 53.1381 34.8618C53.013 34.7368 52.8435 34.6666 52.6667 34.6666H50C49.8232 34.6666 49.6536 34.7368 49.5286 34.8618C49.4036 34.9869 49.3333 35.1564 49.3333 35.3333V37.4862L45.1158 33.7624C44.8542 33.5253 44.3554 33.3333 44 33.3333C43.6446 33.3333 43.1475 33.5253 42.8858 33.7624L32.2192 43.1791C32.0877 43.3119 32.0097 43.4883 32 43.6749C32.0085 43.8379 32.0681 43.994 32.1704 44.1212L33.0625 45.1124C33.2015 45.2372 33.3766 45.3145 33.5625 45.3333C33.7236 45.3171 33.8775 45.258 34.0079 45.162L34.6704 44.5787V53.3333C34.6704 53.6869 34.8109 54.026 35.0609 54.2761C35.311 54.5261 35.6501 54.6666 36.0037 54.6666H52C52.3536 54.6666 52.6928 54.5261 52.9428 54.2761C53.1929 54.026 53.3333 53.6869 53.3333 53.3333V44.5783L53.9962 45.1616C54.1273 45.2575 54.2814 45.3167 54.4429 45.3333C54.6271 45.314 54.8004 45.2365 54.9375 45.112L55.8296 44.1199C55.9253 43.9894 55.9842 43.8356 56 43.6745C55.9809 43.4897 55.9034 43.3157 55.7788 43.1778ZM44 40.6666C44.5274 40.6666 45.043 40.823 45.4815 41.116C45.9201 41.409 46.2618 41.8255 46.4637 42.3128C46.6655 42.8 46.7183 43.3362 46.6154 43.8535C46.5125 44.3708 46.2586 44.8459 45.8856 45.2189C45.5127 45.5918 45.0375 45.8458 44.5202 45.9487C44.003 46.0516 43.4668 45.9988 42.9795 45.7969C42.4922 45.5951 42.0758 45.2533 41.7827 44.8148C41.4897 44.3762 41.3333 43.8607 41.3333 43.3333C41.3333 42.626 41.6143 41.9477 42.1144 41.4476C42.6145 40.9475 43.2928 40.6666 44 40.6666ZM48.6667 51.9999H39.3333C39.1565 51.9999 38.987 51.9297 38.8619 51.8047C38.7369 51.6796 38.6667 51.5101 38.6667 51.3333C38.6667 50.2724 39.0881 49.255 39.8382 48.5048C40.5884 47.7547 41.6058 47.3333 42.6667 47.3333H45.3333C46.3942 47.3333 47.4116 47.7547 48.1618 48.5048C48.9119 49.255 49.3333 50.2724 49.3333 51.3333C49.3333 51.5101 49.2631 51.6796 49.1381 51.8047C49.013 51.9297 48.8435 51.9999 48.6667 51.9999Z" fill="#023C87"/>
</svg>
