<svg width="21" height="20" viewBox="0 0 21 20" fill="none" xmlns="http://www.w3.org/2000/svg">
<path d="M9.3125 14.8563C9.3125 16.625 8.6275 17.6138 7.4075 17.6138C6.185 17.6125 5.5 16.625 5.5 14.8563C5.5 13.0913 6.185 12.1025 7.4075 12.1025C8.6275 12.1025 9.3125 13.09 9.3125 14.8563ZM7.4075 12.8413C6.73 12.8413 6.3675 13.545 6.3675 14.8563C6.3675 14.9663 6.37125 15.0725 6.375 15.1713L8.32375 13.7425C8.16625 13.15 7.855 12.8425 7.4075 12.8425V12.8413ZM6.4925 15.9763C6.65 16.5663 6.9575 16.8738 7.4075 16.8738C8.0825 16.8738 8.445 16.17 8.445 14.8563C8.445 14.75 8.44125 14.6438 8.4375 14.5438L6.4925 15.9763ZM14.0687 16.7563V17.5H10.3187V16.7563H11.795V13.125H11.7325L10.3125 14.0588V13.1988L11.8 12.2163H12.6625V16.7575H14.0687V16.7563Z" fill="black" fill-opacity="0.8"/>
<path d="M18 17.5V5.625L12.375 0H5.5C4.83696 0 4.20107 0.263392 3.73223 0.732233C3.26339 1.20107 3 1.83696 3 2.5V17.5C3 18.163 3.26339 18.7989 3.73223 19.2678C4.20107 19.7366 4.83696 20 5.5 20H15.5C16.163 20 16.7989 19.7366 17.2678 19.2678C17.7366 18.7989 18 18.163 18 17.5ZM12.375 3.75C12.375 4.24728 12.5725 4.72419 12.9242 5.07583C13.2758 5.42746 13.7527 5.625 14.25 5.625H16.75V17.5C16.75 17.8315 16.6183 18.1495 16.3839 18.3839C16.1495 18.6183 15.8315 18.75 15.5 18.75H5.5C5.16848 18.75 4.85054 18.6183 4.61612 18.3839C4.3817 18.1495 4.25 17.8315 4.25 17.5V2.5C4.25 2.16848 4.3817 1.85054 4.61612 1.61612C4.85054 1.3817 5.16848 1.25 5.5 1.25H12.375V3.75Z" fill="black" fill-opacity="0.8"/>
</svg>
