<svg width="291" height="118" viewBox="0 0 291 118" fill="none" xmlns="http://www.w3.org/2000/svg">
<path d="M130.059 55.5808L112.344 21.4989C112.188 21.1915 111.906 20.4349 112.031 19.8675C112.135 19.4774 112.626 18.6688 113.752 18.5553H123.372C124.402 18.6735 126.727 19.3639 127.791 21.1797L137.333 41.8558L130.059 55.5808Z" fill="#023C87" stroke="#023C87"/>
<path d="M177.227 1.14186L167.607 1C166.877 1.13004 165.261 1.53198 164.635 2.09942C164.283 2.30038 163.493 2.87965 163.149 3.58895L133.82 61.787L135.15 62.6736C135.215 62.7091 135.4 62.78 135.619 62.78H145.513C146.516 62.3781 148.665 61.2834 149.228 60.1202L178.205 4.90115L178.596 4.15639L178.792 3.69534C178.844 3.52984 178.956 3.14209 178.987 2.91511C179.065 2.45407 178.823 1.45395 177.227 1.14186Z" fill="#00B9F1" stroke="#00B9F1"/>
<path d="M57.22 84.93L49.39 105.78H45.43L37.57 84.93H41.23L47.41 102.27L53.62 84.93H57.22ZM61.8201 87.06C61.2001 87.06 60.6801 86.85 60.2601 86.43C59.8401 86.01 59.6301 85.49 59.6301 84.87C59.6301 84.25 59.8401 83.73 60.2601 83.31C60.6801 82.89 61.2001 82.68 61.8201 82.68C62.4201 82.68 62.9301 82.89 63.3501 83.31C63.7701 83.73 63.9801 84.25 63.9801 84.87C63.9801 85.49 63.7701 86.01 63.3501 86.43C62.9301 86.85 62.4201 87.06 61.8201 87.06ZM63.5001 89.25V105.78H60.0801V89.25H63.5001ZM71.4102 91.65C71.9102 90.81 72.5702 90.16 73.3902 89.7C74.2302 89.22 75.2202 88.98 76.3602 88.98V92.52H75.4902C74.1502 92.52 73.1302 92.86 72.4302 93.54C71.7502 94.22 71.4102 95.4 71.4102 97.08V105.78H67.9902V89.25H71.4102V91.65ZM83.4939 92.04V101.19C83.4939 101.81 83.6339 102.26 83.9139 102.54C84.2139 102.8 84.7139 102.93 85.4139 102.93H87.5139V105.78H84.8139C83.2739 105.78 82.0939 105.42 81.2739 104.7C80.4539 103.98 80.0439 102.81 80.0439 101.19V92.04H78.0939V89.25H80.0439V85.14H83.4939V89.25H87.5139V92.04H83.4939ZM105.636 89.25V105.78H102.216V103.83C101.676 104.51 100.966 105.05 100.086 105.45C99.226 105.83 98.306 106.02 97.326 106.02C96.026 106.02 94.856 105.75 93.816 105.21C92.796 104.67 91.986 103.87 91.386 102.81C90.806 101.75 90.516 100.47 90.516 98.97V89.25H93.906V98.46C93.906 99.94 94.276 101.08 95.016 101.88C95.756 102.66 96.766 103.05 98.046 103.05C99.326 103.05 100.336 102.66 101.076 101.88C101.836 101.08 102.216 99.94 102.216 98.46V89.25H105.636ZM117.318 106.05C115.758 106.05 114.348 105.7 113.088 105C111.828 104.28 110.838 103.28 110.118 102C109.398 100.7 109.038 99.2 109.038 97.5C109.038 95.82 109.408 94.33 110.148 93.03C110.888 91.73 111.898 90.73 113.178 90.03C114.458 89.33 115.888 88.98 117.468 88.98C119.048 88.98 120.478 89.33 121.758 90.03C123.038 90.73 124.048 91.73 124.788 93.03C125.528 94.33 125.898 95.82 125.898 97.5C125.898 99.18 125.518 100.67 124.758 101.97C123.998 103.27 122.958 104.28 121.638 105C120.338 105.7 118.898 106.05 117.318 106.05ZM117.318 103.08C118.198 103.08 119.018 102.87 119.778 102.45C120.558 102.03 121.188 101.4 121.668 100.56C122.148 99.72 122.388 98.7 122.388 97.5C122.388 96.3 122.158 95.29 121.698 94.47C121.238 93.63 120.628 93 119.868 92.58C119.108 92.16 118.288 91.95 117.408 91.95C116.528 91.95 115.708 92.16 114.948 92.58C114.208 93 113.618 93.63 113.178 94.47C112.738 95.29 112.518 96.3 112.518 97.5C112.518 99.28 112.968 100.66 113.868 101.64C114.788 102.6 115.938 103.08 117.318 103.08ZM135.279 106.05C133.979 106.05 132.809 105.82 131.769 105.36C130.749 104.88 129.939 104.24 129.339 103.44C128.739 102.62 128.419 101.71 128.379 100.71H131.919C131.979 101.41 132.309 102 132.909 102.48C133.529 102.94 134.299 103.17 135.219 103.17C136.179 103.17 136.919 102.99 137.439 102.63C137.979 102.25 138.249 101.77 138.249 101.19C138.249 100.57 137.949 100.11 137.349 99.81C136.769 99.51 135.839 99.18 134.559 98.82C133.319 98.48 132.309 98.15 131.529 97.83C130.749 97.51 130.069 97.02 129.489 96.36C128.929 95.7 128.649 94.83 128.649 93.75C128.649 92.87 128.909 92.07 129.429 91.35C129.949 90.61 130.689 90.03 131.649 89.61C132.629 89.19 133.749 88.98 135.009 88.98C136.889 88.98 138.399 89.46 139.539 90.42C140.699 91.36 141.319 92.65 141.399 94.29H137.979C137.919 93.55 137.619 92.96 137.079 92.52C136.539 92.08 135.809 91.86 134.889 91.86C133.989 91.86 133.299 92.03 132.819 92.37C132.339 92.71 132.099 93.16 132.099 93.72C132.099 94.16 132.259 94.53 132.579 94.83C132.899 95.13 133.289 95.37 133.749 95.55C134.209 95.71 134.889 95.92 135.789 96.18C136.989 96.5 137.969 96.83 138.729 97.17C139.509 97.49 140.179 97.97 140.739 98.61C141.299 99.25 141.589 100.1 141.609 101.16C141.609 102.1 141.349 102.94 140.829 103.68C140.309 104.42 139.569 105 138.609 105.42C137.669 105.84 136.559 106.05 135.279 106.05ZM167.505 89.25L162.375 105.78H158.775L155.445 93.57L152.115 105.78H148.515L143.355 89.25H146.835L150.285 102.54L153.795 89.25H157.365L160.725 102.48L164.145 89.25H167.505ZM168.921 97.44C168.921 95.78 169.261 94.31 169.941 93.03C170.641 91.75 171.581 90.76 172.761 90.06C173.961 89.34 175.281 88.98 176.721 88.98C178.021 88.98 179.151 89.24 180.111 89.76C181.091 90.26 181.871 90.89 182.451 91.65V89.25H185.901V105.78H182.451V103.32C181.871 104.1 181.081 104.75 180.081 105.27C179.081 105.79 177.941 106.05 176.661 106.05C175.241 106.05 173.941 105.69 172.761 104.97C171.581 104.23 170.641 103.21 169.941 101.91C169.261 100.59 168.921 99.1 168.921 97.44ZM182.451 97.5C182.451 96.36 182.211 95.37 181.731 94.53C181.271 93.69 180.661 93.05 179.901 92.61C179.141 92.17 178.321 91.95 177.441 91.95C176.561 91.95 175.741 92.17 174.981 92.61C174.221 93.03 173.601 93.66 173.121 94.5C172.661 95.32 172.431 96.3 172.431 97.44C172.431 98.58 172.661 99.58 173.121 100.44C173.601 101.3 174.221 101.96 174.981 102.42C175.761 102.86 176.581 103.08 177.441 103.08C178.321 103.08 179.141 102.86 179.901 102.42C180.661 101.98 181.271 101.34 181.731 100.5C182.211 99.64 182.451 98.64 182.451 97.5ZM205.273 89.25L195.133 113.55H191.593L194.953 105.51L188.443 89.25H192.253L196.903 101.85L201.733 89.25H205.273ZM232.296 84.93V105.78H228.876V96.66H219.066V105.78H215.646V84.93H219.066V93.87H228.876V84.93H232.296ZM247.629 105.78L242.829 97.44H240.219V105.78H236.799V84.93H243.999C245.599 84.93 246.949 85.21 248.049 85.77C249.169 86.33 249.999 87.08 250.539 88.02C251.099 88.96 251.379 90.01 251.379 91.17C251.379 92.53 250.979 93.77 250.179 94.89C249.399 95.99 248.189 96.74 246.549 97.14L251.709 105.78H247.629ZM240.219 94.71H243.999C245.279 94.71 246.239 94.39 246.879 93.75C247.539 93.11 247.869 92.25 247.869 91.17C247.869 90.09 247.549 89.25 246.909 88.65C246.269 88.03 245.299 87.72 243.999 87.72H240.219V94.71Z" fill="#023C87"/>
</svg>
