<?xml version="1.0" standalone="no"?>
<!DOCTYPE svg PUBLIC "-//W3C//DTD SVG 20010904//EN"
 "http://www.w3.org/TR/2001/REC-SVG-20010904/DTD/svg10.dtd">
<svg version="1.0" xmlns="http://www.w3.org/2000/svg"
 width="632.000000pt" height="632.000000pt" viewBox="0 0 632.000000 632.000000"
 preserveAspectRatio="xMidYMid meet">
<metadata>
Created by potrace 1.14, written by Peter Selinger 2001-2017
</metadata>
<g transform="translate(0.000000,632.000000) scale(0.100000,-0.100000)"
fill="#000000" stroke="none">
<path d="M5095 6018 c-96 -26 -165 -59 -233 -112 -78 -59 -94 -83 -188 -271
-43 -88 -83 -163 -87 -166 -5 -3 -8 -9 -8 -13 1 -5 -101 -213 -198 -401 -17
-33 -31 -65 -31 -72 0 -6 -3 -13 -7 -15 -5 -1 -84 -154 -176 -338 -662 -1317
-793 -1575 -799 -1578 -5 -2 -8 -9 -8 -15 0 -6 -30 -69 -66 -141 -113 -222
-176 -351 -173 -352 2 0 -1 -7 -8 -15 -7 -8 -123 -235 -259 -505 -135 -269
-374 -742 -530 -1052 -156 -310 -284 -567 -284 -571 0 -9 141 -101 180 -118
14 -5 34 -7 45 -3 11 4 24 5 28 3 5 -3 204 -4 444 -4 l436 1 66 32 c96 46 192
109 242 161 25 26 66 87 94 144 28 54 53 99 58 101 4 2 7 12 7 22 0 10 3 20 8
22 4 2 26 39 48 83 50 97 150 288 214 410 77 146 143 272 210 400 34 66 82
156 105 200 24 44 70 132 103 195 70 136 148 284 207 395 23 44 62 118 86 165
24 47 47 88 52 91 5 3 8 9 8 13 -1 6 25 58 99 198 19 37 55 107 80 155 25 48
47 90 51 93 3 3 13 23 24 45 10 22 40 80 67 129 26 49 48 95 48 102 0 7 4 14
8 16 5 2 48 80 96 173 49 94 108 206 131 250 23 44 68 130 100 190 32 61 86
164 121 230 158 301 186 355 221 425 21 41 40 77 43 80 3 3 32 59 65 125 33
66 62 122 66 125 3 3 20 34 39 70 81 159 122 236 132 248 6 6 7 12 3 12 -4 0
-3 6 2 13 6 6 36 62 68 122 32 61 68 129 81 152 12 22 20 44 17 47 -4 3 -2 6
4 6 6 0 14 17 18 38 4 20 9 48 12 62 7 38 -16 105 -46 133 -40 38 -101 66
-156 72 -28 3 -243 7 -480 9 -399 3 -435 2 -500 -16z"/>
<path d="M179 4410 c-58 -20 -93 -50 -121 -104 -16 -32 -19 -50 -14 -98 7 -60
27 -103 239 -510 101 -193 205 -393 267 -513 31 -60 84 -162 117 -225 33 -63
96 -185 140 -270 236 -456 324 -623 335 -637 6 -7 7 -13 2 -13 -5 0 -4 -4 1
-8 6 -4 32 -50 58 -102 27 -52 89 -174 140 -270 50 -96 121 -233 158 -305 37
-71 93 -179 125 -240 31 -60 69 -134 84 -163 20 -39 30 -49 37 -40 6 7 41 72
78 143 177 337 240 456 271 512 12 23 59 111 103 195 44 84 89 169 100 188 11
19 50 94 87 166 l67 131 -53 114 c-29 63 -72 155 -95 204 -23 50 -53 113 -65
140 -12 28 -37 82 -55 120 -18 39 -43 93 -55 120 -13 28 -42 91 -65 140 -24
50 -53 113 -65 140 -12 28 -42 92 -66 144 -24 51 -44 94 -44 96 0 1 -27 61
-60 131 -68 144 -76 161 -119 255 -156 340 -159 346 -215 401 -63 62 -146 111
-245 145 l-76 27 -474 1 c-418 1 -479 -1 -522 -15z"/>
</g>
</svg>
